<svg width="768" height="618" viewBox="0 0 768 618" fill="none" xmlns="http://www.w3.org/2000/svg">
<g clip-path="url(#clip0_330_19092)">
<path fill-rule="evenodd" clip-rule="evenodd" d="M717.805 313.553L707.172 366.427L625.174 349.966L611.984 328.877L635.799 297.091L537.132 277.279L540.464 218.323L666.285 66.5679L750.344 65.0112L763.541 86.093L731.469 245.594L752.189 231.311L765.378 252.399L748.193 319.652L717.805 313.553ZM283.955 252.443L294.595 305.317L212.595 321.791L188.627 309.436L201.958 268.914L103.286 288.739L79.3203 276.386L83.5635 233.078L140.945 44.5298L214.226 12.6419L238.194 24.9908L270.283 184.484L280.224 165.318L304.19 177.673L314.34 246.338L283.955 252.443ZM446.526 95.5679C444.144 90.3037 439.303 88.4734 433.777 88.0057C428.454 87.5589 423.39 88.4315 420.504 93.1714C416.732 99.8136 414.245 106.947 413.309 114.53C411.681 127.74 410.193 140.988 409.076 154.254L408.524 160.914C407.455 173.574 406.449 186.328 405.932 199.021C405.778 202.777 405.667 206.563 405.73 210.322C405.765 211.994 405.785 214.288 406.156 215.919C407.12 220.235 408.307 224.645 409.949 228.757L409.977 228.835L410.012 228.915C412.191 235.037 418.444 236.773 424.368 237.272C432.855 237.979 436.9 233.078 439.233 225.374C441.434 218.109 442.691 209.86 443.753 202.353C445.548 189.715 446.778 176.932 447.847 164.211L448.406 157.551C449.363 146.157 450.271 134.667 450.683 123.24C450.802 119.842 450.879 116.412 450.788 113.016C450.746 111.505 450.697 109.422 450.348 107.951C449.328 103.774 448.119 99.5665 446.526 95.5679ZM529.65 106.407C531.075 126.913 529.985 148.258 528.267 168.721C526.548 189.181 524.061 210.408 519.234 230.389C515.469 245.977 509.65 261.067 500.939 274.588C481.902 304.134 448.301 310.178 415.349 307.418C382.488 304.661 351.08 292.969 337.318 260.868C330.954 246.025 327.692 230.083 326.455 214.033C324.869 193.577 325.868 172.306 327.58 151.89C330.437 117.92 337.171 71.4754 357.276 42.9242C376.312 15.9088 409.118 11.0084 440.023 13.6052C472.716 16.3416 505.277 27.5387 518.983 59.7966C525.277 74.5888 528.525 90.4043 529.65 106.407Z" fill="#E9DECE"/>
<path fill-rule="evenodd" clip-rule="evenodd" d="M638.472 208.478L648.401 159.072L611.971 203.156L638.472 208.478ZM704.62 292.463L693.987 345.337L611.985 328.875L622.618 275.999L523.947 256.187L527.275 197.236L653.103 45.4774L750.352 65.0041L718.285 224.501L752.195 231.31L735.002 298.563L704.62 292.463ZM166.503 188.164L156.565 138.758L140.005 193.487L166.503 188.164ZM259.989 240.085L270.632 292.96L188.629 309.434L177.992 256.56L79.3228 276.384L59.5977 220.72L116.978 32.1675L214.229 12.6339L246.318 172.129L280.227 165.316L290.375 233.984L259.989 240.085ZM422.563 83.2129C420.174 77.9483 415.34 76.1129 409.809 75.6506C404.493 75.2021 399.431 76.0784 396.538 80.8186C392.768 87.4563 390.275 94.5909 389.343 102.175C387.714 115.385 386.229 128.631 385.111 141.896L384.558 148.559C383.495 161.219 382.48 173.971 381.969 186.664C381.817 190.42 381.7 194.206 381.769 197.967C381.796 199.64 381.824 201.93 382.19 203.562C383.157 207.881 384.344 212.287 385.981 216.402L386.015 216.48L386.043 216.561C388.232 222.681 394.481 224.416 400.405 224.915C408.891 225.624 412.937 220.72 415.264 213.019C417.467 205.752 418.731 197.506 419.787 189.998C421.582 177.361 422.811 164.574 423.882 151.856L424.441 145.194C425.401 133.802 426.305 122.31 426.713 110.885C426.83 107.487 426.92 104.057 426.823 100.661C426.789 99.1503 426.74 97.061 426.381 95.5982C425.366 91.4169 424.151 87.2079 422.563 83.2129ZM505.684 94.0527C507.113 114.558 506.029 135.9 504.303 156.364C502.583 176.826 500.098 198.051 495.271 218.034C491.501 233.62 485.687 248.71 476.973 262.231C457.936 291.779 424.337 297.823 391.387 295.061C358.52 292.304 327.117 280.615 313.354 248.511C306.993 233.669 303.726 217.726 302.487 201.678C300.906 181.222 301.904 159.948 303.618 139.535C306.47 105.562 313.202 59.1185 333.317 30.5667C352.347 3.55359 385.152 -1.34528 416.058 1.24908C448.753 3.98834 481.31 15.1868 495.023 47.4369C501.313 62.2372 504.565 78.0518 505.684 94.0527Z" fill="#585D69"/>
<path fill-rule="evenodd" clip-rule="evenodd" d="M428.441 152.243L429 145.576C431.439 116.558 432.046 99.5427 430.832 94.5186C429.607 89.4998 428.259 85.1305 426.776 81.4322C424.015 75.2379 418.488 71.7919 410.189 71.0994C401.895 70.3963 396.019 72.8869 392.554 78.5605C388.353 85.9625 385.764 93.649 384.798 101.615C382.96 116.37 381.548 129.671 380.554 141.518L379.995 148.179C377.283 180.455 376.525 199.247 377.718 204.572C378.916 209.886 380.253 214.4 381.73 218.104C384.148 224.862 390.244 228.651 400.026 229.473C409.802 230.294 416.339 225.248 419.643 214.347C422.946 203.439 425.879 182.736 428.441 152.243ZM501.113 94.3737C502.263 110.874 501.806 131.411 499.743 155.984C497.681 180.562 494.705 200.884 490.821 216.961C486.932 233.031 481.034 247.299 473.127 259.755C457.706 283.512 430.579 293.761 391.77 290.505C353.54 287.299 328.804 272.701 317.562 246.714C311.836 233.112 308.333 217.98 307.05 201.325C305.76 184.669 306.136 164.202 308.172 139.924C312.357 90.1761 321.983 54.6046 337.055 33.2037C352.128 11.8081 378.336 2.67236 415.673 5.8071C454.784 9.08136 479.831 23.558 490.805 49.2262C496.526 62.8279 499.958 77.8735 501.113 94.3737Z" fill="#FEFEFE"/>
<path fill-rule="evenodd" clip-rule="evenodd" d="M171.893 191.743L158.442 124.892L155.816 125.416L133.416 199.473L171.893 191.743ZM285.209 230.353L254.6 236.502L265.241 289.379L192.211 304.047L181.575 251.175L82.311 271.12L64.416 220.617L120.56 36.1186L210.64 18.0194L242.732 177.518L276.406 170.751L285.209 230.353Z" fill="#FEFEFE"/>
<path fill-rule="evenodd" clip-rule="evenodd" d="M642.054 213.863L655.492 147.003L652.868 146.482L603.573 206.139L642.054 213.863ZM731.643 293.226L701.029 287.081L690.401 339.955L617.376 325.295L628.004 272.415L528.734 252.49L531.757 198.995L654.881 50.5055L744.965 68.589L712.894 228.087L746.566 234.847L731.643 293.226Z" fill="#FEFEFE"/>
<path fill-rule="evenodd" clip-rule="evenodd" d="M200.207 300.516C187.116 305.753 177.196 316.299 171.993 329.295C170.471 333.099 169.319 337.054 168.638 341.141C168.144 344.137 168.335 343.376 164.016 345.933C144.341 357.588 125.666 372.546 111.033 389.921C102.22 400.856 97.0706 410.376 90.4294 422.504C89.9798 423.332 89.5254 424.053 89.0485 424.926C85.1965 431.979 80.3042 439.148 75.8158 445.886C68.7833 457.429 64.3652 467.599 58.5872 479.861C55.8809 485.229 53.6114 491.45 50.5924 496.646L48.5604 500.23C44.4078 507.897 33.4903 520.063 28.6914 527.933C25.9022 532.506 23.6804 536.532 21.3456 541.4C19.3845 545.373 18.0717 549.447 16.6177 553.851C15.6786 556.695 14.2197 565.223 14.7852 569.269C15.017 570.929 14.717 571.514 13.8608 573.224C11.559 577.82 9.20597 582.174 7.025 586.873C6.63376 587.721 6.35842 588.354 5.97983 589.127C3.39989 594.358 0.691406 601.85 0.691406 607.79C0.691406 609.894 0.873317 611.425 1.06507 612.571C1.39099 614.51 1.7162 615.804 2.33993 617.669L22.0452 612.777C26.8033 611.589 31.4174 610.381 36.1889 609.246C38.5518 608.676 40.8585 608.118 43.2291 607.525L135.112 584.735C144.609 582.366 153.949 580.073 163.435 577.702L195.202 569.809C196.398 569.508 197.509 569.203 198.771 568.918C206.001 567.279 212.885 565.447 220.089 563.631L276.637 549.629C295.41 544.939 314.305 540.3 333.158 535.589C337.787 534.433 342.507 533.298 347.206 532.123C351.849 530.962 356.569 529.666 361.38 528.619L382.797 523.601C384.623 523.147 388.479 521.977 390.2 522.08L578.789 536.424C583.278 536.908 596.694 538.146 600.978 537.518C602.994 537.22 605.214 536.842 606.892 535.808C607.398 535.498 607.11 535.571 607.609 535.571C610.995 535.598 613.046 534.678 616.199 533.409C620.505 531.676 624.663 530.201 628.955 528.48C633.233 526.762 637.398 525.236 641.683 523.524C645.96 521.805 650.168 520.305 654.424 518.592L679.908 508.706C681.987 507.873 684.157 507.074 686.208 506.257C693.914 503.154 691.483 504.292 694.216 496.931C695.332 493.919 696.428 490.907 697.517 487.89C719.032 428.399 741.424 369.058 763.339 309.698C765.699 303.19 771.621 288.171 761.97 285.671C758.654 284.909 755.444 284.369 752.15 283.592C745.744 282.079 738.931 280.984 732.483 279.463C729.28 278.706 725.957 278.179 722.635 277.415L702.968 273.29C700.341 272.771 700.502 272.662 699.673 275.144C698.423 278.895 696.288 284.409 694.82 288.133L621.348 485.211C621.123 485.794 620.695 486.882 620.575 487.403L615.125 487.075C579.99 485.191 544.835 483.554 509.694 481.622C539.862 458.329 526.404 431.383 531.18 389.984C537.418 335.823 491.93 292.873 438.954 292.873C439.551 291.621 438.498 288.723 437.353 286.422C433.707 279.054 428.58 276.943 425.44 276.323C420.474 272.685 413.984 267.653 408.435 264.91C402.001 261.727 395.749 258.238 388.943 255.82C384.546 254.258 380.268 252.697 375.695 251.554C359.168 247.427 342.584 246.287 325.306 248.827C306.108 251.652 279.386 266.672 264.113 278.847C226.607 308.749 235.455 286.417 200.207 300.516Z" fill="#585D69"/>
<path fill-rule="evenodd" clip-rule="evenodd" d="M392.187 312.196C389.34 312.196 389.236 311.101 388.913 309.686C387.233 302.318 387.487 305.804 385.454 301.248C385.102 300.454 384.838 300.063 384.56 299.172C383.174 294.682 385.534 291.194 388.008 287.874C397.504 276.215 415.979 270.986 428.899 280.46C430.807 281.856 434.002 284.994 434.971 287.278C435.383 288.261 436.65 291.055 436.258 291.981C432.397 301.056 399.77 312.196 392.187 312.196Z" fill="#E9DECE"/>
<path fill-rule="evenodd" clip-rule="evenodd" d="M608.344 533.149L697.642 287.981L700.582 280.013C702.437 275.05 701.212 275.611 705.965 276.564C707.204 276.809 708.492 277.104 709.794 277.362L759.928 287.873C767.691 288.859 763.19 302.672 760.929 308.792C738.963 368.248 717.018 427.703 695.052 487.156L691.804 495.955C689.529 502.119 691.23 501.552 685.511 503.749C683.495 504.523 681.507 505.293 679.449 506.11C674.983 507.901 666.422 511.311 661.83 512.938C661.025 513.224 660.465 513.471 659.695 513.781C658.897 514.099 658.183 514.349 657.427 514.651C642.861 520.438 627.895 526.068 613.251 531.779C611.907 532.304 610.066 533.109 608.344 533.149Z" fill="#585D69"/>
<path fill-rule="evenodd" clip-rule="evenodd" d="M394.669 474.359C394.669 477.626 395.992 480.428 397.431 482.333C398.306 483.498 398.97 484.257 400.114 485.097C401.136 485.836 403.329 486.742 404.584 486.742C405.596 486.742 405.738 485.461 405.738 484.762C405.738 483.067 402.633 484.131 399.692 480.07C397.31 476.77 398.079 475.653 397.721 473.95C397.236 471.605 394.669 471.892 394.669 474.359ZM375.83 367.513C373.337 367.72 368.181 371.332 366.099 372.984L362.815 375.976C358.377 380.368 353.517 388.669 353.517 394.761C353.517 398.298 355.868 401.522 358.251 402.747C360.728 404.022 363.285 403.161 365.751 402.193C368.524 401.108 367.707 399.317 366.395 399.266C365.968 399.249 364.956 399.74 364.476 399.93C363.627 400.265 361.445 401.009 360.391 400.79C357.855 400.273 356.163 397.286 356.163 394.431C356.163 390.132 359.437 384.202 362.114 380.723C363.669 378.695 365.672 376.624 367.612 374.992C369.694 373.247 371.94 371.766 374.391 370.54C375.124 370.174 375.809 369.987 376.489 369.66C379.198 402.255 403.124 440.484 428.288 460.912C439.405 468.898 470.673 480.062 485.891 483.604C480.941 487.322 475.96 490.354 469.861 491.863C458.233 494.743 446.658 495.21 434.687 493.984C430.591 493.56 426.97 492.395 423.259 491.53C423.17 487.61 419.538 481.11 417.335 478.133C415.99 476.312 414.662 474.422 413.054 472.83C412 471.786 409.196 468.578 407.557 468.578C406.176 468.578 405.253 469.468 405.153 470.767C405.037 472.351 407.968 474.119 409.586 475.8C410.039 476.268 410.176 476.556 410.656 477.038C411.858 478.246 412.812 479.803 413.813 481.152C415.88 483.947 417.967 486.982 418.795 490.541C417.256 490.508 416.544 490.443 414.899 490.773C413.445 491.071 412.707 491.335 411.42 491.759C409.122 492.521 407.119 493.487 404.937 494.363C397.115 497.508 395.507 497.69 386.762 498.663C378.476 499.594 378.666 490.712 377.385 485.683C376.721 483.087 373.178 484.598 370.38 484.598C361.471 484.598 352.885 469.405 351.24 462.927C350.054 459.547 347.65 458.162 348.352 463.833C348.742 466.988 346.507 469.715 349.221 474.687C345.247 472.782 341.13 472.8 336.924 471.952C335.675 471.698 334.668 471.463 333.856 471.244C327.536 469.549 324.552 464.367 323.672 458.192C323.219 454.946 323.166 451.601 322.808 448.407L322.613 441.001C322.613 435.252 323.113 429.488 323.113 423.495C323.113 422.05 322.613 420.42 322.613 418.541C322.613 412.764 323.219 408.153 324.695 402.946C325.143 401.357 326.086 399.63 326.086 398.066C326.086 397.006 324.189 396.431 323.461 398.411C321.353 404.175 320.135 409.351 320.135 415.897C306.256 402.962 301.317 402.367 298.534 380.019C297.322 370.24 295.888 357.695 291.434 348.799C288.277 342.485 284.397 336.902 278.525 332.965C274.804 330.473 273.807 329.819 257.504 325.238C265.753 323.689 276.538 322.743 287.254 322.756C316.767 324.565 352.437 327.087 380.953 320.448C380.69 321.568 380.041 322.642 379.604 323.727C371.724 343.292 375.461 350.496 375.83 367.513Z" fill="#FEFEFE"/>
<path fill-rule="evenodd" clip-rule="evenodd" d="M598.097 518.451L360.953 507.385C361.885 506.795 377.253 503.233 379.659 502.63C383.673 501.639 383.551 501.681 387.693 501.25L395.989 500.125C401.221 499.255 409.852 494.379 415.706 493.296C419.22 492.643 429.965 496.082 433.51 496.475C443.256 497.56 449.426 497.532 458.946 496.488C467.431 495.557 476.08 493.673 482.982 488.63L484.73 487.404C491.783 497.923 502.028 489.859 506.919 483.378L616.614 489.876L619.543 490.156L618.983 491.596L611.795 510.836C610.047 514.723 606.977 518.451 598.097 518.451Z" fill="#FEFEFE"/>
<path fill-rule="evenodd" clip-rule="evenodd" d="M117.527 422.739C116.912 418.246 116.852 413.658 117.393 409.16C117.55 407.869 117.537 406.156 119.017 406.156C119.693 406.156 120.244 406.852 120.262 407.465C120.276 407.813 120.068 408.921 120.012 409.46C119.573 413.362 119.471 418.224 120.012 422.146C120.577 426.344 121.891 430.579 123.904 433.972C124.755 435.397 125.533 436.943 126.62 438.195C126.768 436.386 136.462 414.609 137.573 411.985C138.022 410.933 138.184 408.8 139.678 408.8C141.955 408.8 139.553 413.469 138.896 415.124C135.213 424.351 130.262 434.61 127.138 443.991C122.571 457.686 117.851 471.014 113.932 484.964C106.625 510.959 103.15 532.463 100.022 559.086C99.504 565.964 97.7826 585.63 99.0227 590.945C100.258 590.92 109.416 588.433 110.586 588.14C112.497 587.663 114.302 587.209 116.273 586.717L167.66 573.991C171.477 572.982 175.313 572.094 179.043 571.163C182.86 570.207 186.613 569.206 190.407 568.323C190.468 567.612 190.796 566.988 191.004 566.272C191.226 565.47 191.347 565.001 191.634 564.262C194.59 556.654 197.26 549.841 200.93 542.505L211.674 522.03C214.53 516.67 218.065 511.118 221.683 506.274C226.153 500.745 225.89 500.215 232.937 496.709C235.227 495.569 237.199 494.26 239.253 492.784C241.271 491.339 243.075 489.681 244.82 487.943C248.462 484.303 253.047 477.084 254.954 472.306C255.671 470.513 255.625 468.891 257.832 469.405C257.971 469.693 258.165 470.137 258.165 470.56C258.165 472.172 255.856 476.493 255.139 477.775C253.88 480.022 252.686 481.894 251.289 484.003C247.906 489.106 243.436 493.119 238.369 496.52C229.277 502.616 228.749 500.175 221.905 510.457L215.969 519.722C212.767 525.087 209.939 530.664 206.992 536.176C206.385 537.311 205.913 538.323 205.335 539.478C201.68 546.783 194.799 560.176 193.05 567.665C194.304 567.556 254.875 552.34 255.157 552.27C255.527 552.179 315.807 537.059 317.159 536.946C317.182 535.959 317.612 534.731 317.857 533.843C319.176 529.153 320.81 524.636 323.345 520.504C327.246 514.142 337.56 504.942 340.078 499.903C342.863 494.33 344.534 487.946 343.655 481.574C342.771 475.179 342.609 475.366 340.656 475.154C340.244 475.106 339.61 475.028 339.046 474.95C336.806 474.637 334.932 474.289 333.252 473.787C324.53 471.174 322.225 465.927 321.032 458.039C320.472 454.318 320.12 449.801 320.134 447.278C320.148 444.891 319.972 443.088 319.972 440.669C319.972 436.257 321.48 422.933 319.412 419.271C317.464 415.835 313.068 413.592 310.579 410.585C310.199 410.131 309.449 409.67 308.95 409.246C299.404 401.638 297.641 392.146 296.03 380.502C295.452 376.305 294.98 372.115 294.355 368.341C292.453 356.798 286.683 339.725 275.902 334.267C268.771 330.655 263.473 329.025 255.662 327.885C226.579 323.643 196.256 329.451 170.94 344.755C167.294 346.96 163.685 349.097 160.136 351.463C142.057 363.74 128.929 373.096 114.274 390.024C106.26 399.471 100.999 407.72 95.4921 418.648L94.2844 420.912C89.0139 431.378 82.9808 438.724 77.3415 448.073C71.0988 458.42 66.1689 469.91 61.014 480.802C60.6304 481.577 60.3223 482.356 59.9132 483.166L58.2071 486.912C55.8014 491.79 53.4484 497.562 50.5026 502.006C48.1626 505.54 45.8526 509.087 43.3058 512.48C36.2325 521.904 30.2119 529.32 24.9867 539.756C20.6325 548.445 17.3831 557.282 17.3831 567.332C17.3831 584.921 27.3619 600.45 37.1667 605.525C38.3 606.4 38.8756 605.934 40.1555 605.611L83.1904 594.945C84.6795 594.572 95.3255 592.113 96.3759 591.606C96.3759 590.758 96.1908 588.849 96.0936 588.097C95.6911 585.115 96.0057 582.356 96.0381 579.382C96.1399 571.29 97.3199 562.077 97.8705 553.962C99.0227 536.877 102.887 519.858 106.524 503.162L109.795 490.08C112.872 478.875 116.523 468.003 119.947 456.959L120.651 454.85C121.678 451.488 123.006 448.128 124.121 444.778C124.348 444.104 125.287 441.965 125.287 441.529C120.776 433.205 118.453 429.497 117.527 422.739ZM344.927 475.843C345.589 477.326 346.412 482.05 346.412 484.27C346.412 488.566 346.237 490.514 344.983 494.734C342.35 503.606 337.199 507.987 331.332 514.283C327.417 518.511 324.113 523.417 322.138 528.874C321.795 529.82 320.06 535.041 319.972 536.121C320.967 536.098 355.477 527.416 358.18 526.74C360.438 526.175 380.951 521.914 380.951 521.424L353.848 519.439C352.192 519.575 351.692 519.149 351.572 517.974C351.364 516.014 351.632 507.253 352.849 506.557L362.969 504.115C368.98 502.624 371.201 492.812 371.201 487.242C359.832 487.242 359.79 484.911 353.751 480.731C352.789 480.063 351.942 479.462 351.035 478.819C347.278 476.146 347.44 477.051 344.927 475.843ZM369.382 502.43C369.48 501.999 369.878 501.139 370.1 500.669C370.391 500.046 370.599 499.59 370.872 498.967C372.251 495.851 373.677 490.446 373.677 486.909C374.866 486.909 374.949 486.437 375.005 487.726C375.389 495.998 378.97 498.427 380.456 499.791C379.354 499.882 370.035 502.418 369.382 502.43ZM4.16107 614.561C3.35545 612.881 3.33789 609.647 3.33789 607.626C3.33789 602.447 4.98661 598.696 6.53907 594.31L8.23775 590.395C9.0429 588.809 15.3462 575.906 15.4017 575.258C15.932 578.057 18.2137 584.147 18.4766 584.904C24.0099 600.72 34.1349 606.335 34.569 606.965L27.0366 608.85C21.0586 610.34 13.7586 612.02 7.98275 613.589L4.16107 614.561Z" fill="#E9DECE"/>
</g>
<defs>
<clipPath id="clip0_330_19092">
<rect width="768" height="618" fill="white"/>
</clipPath>
</defs>
</svg>
